<svg xmlns="http://www.w3.org/2000/svg">
<defs>
<font id="ElectroShackle" horiz-adv-x="1400" >
  <font-face 
    font-family="Electro Shackle"
    font-weight="400"
    font-stretch="normal"
    units-per-em="2048"
    panose-1="2 0 5 0 0 0 0 0 0 0"
    ascent="1638"
    descent="-410"
    x-height="1400"
    cap-height="1400"
    bbox="-30 -300 2200 1600"
    underline-thickness="150"
    underline-position="-142"
    unicode-range="U+001D-U+007E"
  />
<missing-glyph horiz-adv-x="1600" 
d="M676 1396h32q335 0 564 -300q124 -187 124 -380v-40q0 -314 -288 -548q-194 -128 -388 -128h-32q-335 0 -564 300q-124 187 -124 380v40q0 314 288 548q194 128 388 128zM96 880h4q688 -4 1084 -4h116q-94 264 -292 364q-138 84 -296 84h-32q-268 0 -468 -228
q-88 -113 -116 -216zM664 1252q24 -28 28 -28l32 28q5 0 32 -32q-6 0 -28 -28v-4q0 -6 28 -28q0 6 28 28h4q6 0 28 -28v-4q0 -6 -28 -28h-4l-32 28q0 -2 -24 -28q28 -30 28 -36l-32 -28l-32 28l-32 -28l-28 32l28 32l-28 28l-32 -28q-5 0 -32 32l32 28l32 -28l28 32
q-6 0 -28 28q0 5 32 32zM692 1220l-28 -32l32 -28q0 2 24 28v4q0 6 -28 28zM692 1156l-28 -32l28 -24q6 0 28 28q0 6 -28 28zM320 1008h12l28 -8v-8l-8 -12q-22 4 -32 4q-16 -4 -16 -24q0 -17 20 -24q26 8 28 8l12 -16q-13 -10 -36 -16q-52 9 -52 48q8 48 44 48zM372 1008
h20q8 -1 8 -8v-28h28v36h28v-92h-28v32h-28v-32h-28v92zM476 1008h64v-24h-44v-12h44v-16q0 -8 -8 -8l-8 4l-8 -4l-20 4v-12h40q8 -1 8 -8v-16h-76v84q1 8 8 8zM600 1008q52 -7 52 -44l-8 -32q8 -1 8 -8q0 -6 -16 -16l-12 8q-22 -4 -32 -4q-33 0 -44 48q0 48 52 48z
M668 1008h12q8 -1 8 -8v-40q3 -24 12 -24h8q6 0 12 12v52l4 8l8 -4h4l8 4l4 -8v-48q-5 -40 -40 -40h-8q-36 0 -40 48v40q1 8 8 8zM764 1008h8l24 -4q8 4 12 4q8 -4 12 -4q8 4 12 4v-20q0 -8 -8 -8q-7 4 -16 4v-4l-8 4h-12v-12h44v-16q0 -8 -8 -8h-36v-12h12q4 0 4 4l8 -4h8
q4 0 4 4q8 -4 12 -4v-20h-20l-24 -4q-7 4 -20 4v-4q-8 4 -12 4v72zM852 1008l28 -4v4q48 -7 48 -32q-3 -28 -20 -28l24 -32l-8 -4h-16q-3 0 -32 32h-4v-16l4 -8l-8 -4h-24v4q0 8 4 8l-4 28l4 40h-4q4 12 8 12zM940 1004h72v-16q0 -8 -8 -8h-36v-8h40v-24h-40v-12h44v-16

<glyph glyph-name=".notdef" horiz-adv-x="1600" 
d="M676 1396h32q335 0 564 -300q124 -187 124 -380v-40q0 -314 -288 -548q-194 -128 -388 -128h-32q-335 0 -564 300q-124 187 -124 380v40q0 314 288 548q194 128 388 128zM96 880h4q688 -4 1084 -4h116q-94 264 -292 364q-138 84 -296 84h-32q-268 0 -468 -228
q-88 -113 -116 -216zM664 1252q24 -28 28 -28l32 28q5 0 32 -32q-6 0 -28 -28v-4q0 -6 28 -28q0 6 28 28h4q6 0 28 -28v-4q0 -6 -28 -28h-4l-32 28q0 -2 -24 -28q28 -30 28 -36l-32 -28l-32 28l-32 -28l-28 32l28 32l-28 28l-32 -28q-5 0 -32 32l32 28l32 -28l28 32
q-6 0 -28 28q0 5 32 32zM692 1220l-28 -32l32 -28q0 2 24 28v4q0 6 -28 28zM692 1156l-28 -32l28 -24q6 0 28 28q0 6 -28 28zM320 1008h12l28 -8v-8l-8 -12q-22 4 -32 4q-16 -4 -16 -24q0 -17 20 -24q26 8 28 8l12 -16q-13 -10 -36 -16q-52 9 -52 48q8 48 44 48zM372 1008
h20q8 -1 8 -8v-28h28v36h28v-92h-28v32h-28v-32h-28v92zM476 1008h64v-24h-44v-12h44v-16q0 -8 -8 -8l-8 4l-8 -4l-20 4v-12h40q8 -1 8 -8v-16h-76v84q1 8 8 8zM600 1008q52 -7 52 -44l-8 -32q8 -1 8 -8q0 -6 -16 -16l-12 8q-22 -4 -32 -4q-33 0 -44 48q0 48 52 48z
M668 1008h12q8 -1 8 -8v-40q3 -24 12 -24h8q6 0 12 12v52l4 8l8 -4h4l8 4l4 -8v-48q-5 -40 -40 -40h-8q-36 0 -40 48v40q1 8 8 8zM764 1008h8l24 -4q8 4 12 4q8 -4 12 -4q8 4 12 4v-20q0 -8 -8 -8q-7 4 -16 4v-4l-8 4h-12v-12h44v-16q0 -8 -8 -8h-36v-12h12q4 0 4 4l8 -4h8
q4 0 4 4q8 -4 12 -4v-20h-20l-24 -4q-7 4 -20 4v-4q-8 4 -12 4v72zM852 1008l28 -4v4q48 -7 48 -32q-3 -28 -20 -28l24 -32l-8 -4h-16q-3 0 -32 32h-4v-16l4 -8l-8 -4h-24v4q0 8 4 8l-4 28l4 40h-4q4 12 8 12zM940 1004h72v-16q0 -8 -8 -8h-36v-8h40v-24h-40v-12h44v-16
q0 -8 -8 -8h-56q-8 0 -8 8v84zM1024 1004h48q36 0 40 -48q0 -42 -64 -44h-16q-8 0 -8 8v84zM576 956q6 -20 28 -20q20 6 20 28q-8 18 -16 20h-16q-16 -6 -16 -28zM872 984v-20h20q8 0 8 8v4q0 8 -8 8h-20zM1052 980v-44h4q22 0 28 16v16q0 6 -12 12h-20zM208 680v-8
q13 -68 64 -68h40q20 10 20 32v16q-16 0 -16 20q0 40 76 40q0 5 16 8v-4q-75 -248 -96 -252h-8q-9 0 -12 20q0 7 20 44q-20 36 -52 36h-12q-64 -9 -64 -64v-8q0 -58 72 -84q21 -4 40 -4h16q125 0 164 172q24 53 84 228q-19 12 -52 12h-24q-31 0 -60 -36q-51 -22 -156 -36
q-60 -21 -60 -64zM796 460l-4 8v12q0 19 32 136q-10 40 -44 40h-28q-17 0 -64 -20v8l4 8q-16 8 -44 8h-40q-35 0 -48 -44q-64 -198 -64 -208q24 -12 68 -12q60 0 60 60q41 132 56 132q12 0 12 4q16 -6 16 -12q-36 -93 -36 -124v-8q0 -39 56 -48q40 0 108 36l-8 -24
q16 -16 56 -16q68 0 68 32q22 160 76 160h12q8 -1 8 -8v-4q0 -27 -52 -52l-4 -20q0 -104 84 -104q87 0 144 108l-16 12h-8q-35 -60 -80 -60h-8q-24 10 -24 36v16l56 36q20 37 20 56v8q0 41 -60 48q-16 0 -84 -24q0 4 -4 4q60 154 60 160q-19 12 -60 12h-36q-30 0 -40 -68
q-11 -12 -80 -236q-45 -48 -60 -48zM208 312v-4q203 -236 476 -236h32q251 0 448 204q24 28 24 32q-502 4 -748 4h-232zM516 244h40v-8h-32v-20h32v-8h-32v-16h28q8 -1 8 -8h-44v60zM580 244h20q6 0 12 -12h-4l-24 4q-8 -1 -8 -8v-8q40 -4 40 -20q-6 -20 -28 -20
q-24 8 -24 16l8 4q0 -9 20 -12l16 8q0 12 -40 20v16q0 6 12 12zM616 244h48v-8h-20v-52h-8v52h-20v8zM716 244q12 0 24 -16q0 -19 -40 -24l-4 -8q1 -8 8 -8h32v-8h-28l-20 4v4q0 28 28 28h12q0 4 4 12l-12 8h-12l-16 -12v8q4 12 24 12zM772 244h4q6 0 16 -16v-32
q-6 -16 -28 -16q-20 6 -20 28v8q0 28 28 28zM820 244v-56h12q0 -8 -8 -8h-20v8h8v44h-8v8q9 0 16 4zM840 244h36q8 -1 8 -8h-36v-16h24q8 -2 16 -20q-6 -20 -28 -20q-20 3 -20 12v8l16 -12h12q6 0 12 12q0 6 -12 12h-28v32zM752 224v-24q0 -6 12 -12h8q6 0 12 12v24
q0 6 -12 12h-8q-6 0 -12 -12z" />
    <glyph glyph-name=".null" horiz-adv-x="0" 
 />
    <glyph glyph-name=".null" horiz-adv-x="0" 
 />
    <glyph glyph-name="nonmarkingreturn" horiz-adv-x="508" 
 />
    <glyph glyph-name="space" unicode=" " horiz-adv-x="508" 
 />
    <glyph glyph-name="space" unicode="&#xa0;" horiz-adv-x="508" 
 />
    <glyph glyph-name="exclam" unicode="!" horiz-adv-x="400" 
d="M200 400q0 -41 -29.5 -70.5t-70.5 -29.5t-70.5 29.5t-29.5 70.5v900q0 41 29.5 70.5t70.5 29.5t70.5 -29.5t29.5 -70.5v-900zM100 0q-41 0 -70.5 29.5t-29.5 70.5t29.5 70.5t70.5 29.5t70.5 -29.5t29.5 -70.5t-29.5 -70.5t-70.5 -29.5z" />
    <glyph glyph-name="quotedbl" unicode="&#x22;" horiz-adv-x="700" 
d="M0 1300q0 41 29.5 70.5t70.5 29.5t70.5 -29.5t29.5 -70.5v-300q0 -41 -29.5 -70.5t-70.5 -29.5t-70.5 29.5t-29.5 70.5v300zM300 1300q0 41 29.5 70.5t70.5 29.5t70.5 -29.5t29.5 -70.5v-300q0 -41 -29.5 -70.5t-70.5 -29.5t-70.5 29.5t-29.5 70.5v300z" />
    <glyph glyph-name="numbersign" unicode="#" horiz-adv-x="1600" 
d="M300 500v400h-200q-41 0 -70.5 29.5t-29.5 70.5t29.5 70.5t70.5 29.5h200v200q0 41 29.5 70.5t70.5 29.5t70.5 -29.5t29.5 -70.5v-200h400v200q0 41 29.5 70.5t70.5 29.5t70.5 -29.5t29.5 -70.5v-200h200q41 0 70.5 -29.5t29.5 -70.5t-29.5 -70.5t-70.5 -29.5h-200v-400
h200q41 0 70.5 -29.5t29.5 -70.5t-29.5 -70.5t-70.5 -29.5h-200v-200q0 -41 -29.5 -70.5t-70.5 -29.5t-70.5 29.5t-29.5 70.5v200h-400v-200q0 -41 -29.5 -70.5t-70.5 -29.5t-70.5 29.5t-29.5 70.5v200h-200q-41 0 -70.5 29.5t-29.5 70.5t29.5 70.5t70.5 29.5h200zM500 900
v-400h400v400h-400z" />
    <glyph glyph-name="dollar" unicode="$" 
d="M1100 1400q41 0 70.5 -29.5t29.5 -70.5t-29.5 -70.5t-70.5 -29.5h-400v-400h100q166 0 283 -117t117 -283t-117 -283t-283 -117h-100v-100q0 -41 -29.5 -70.5t-70.5 -29.5t-70.5 29.5t-29.5 70.5v100h-400q-41 0 -70.5 29.5t-29.5 70.5t29.5 70.5t70.5 29.5h400v400h-100
q-166 0 -283 117t-117 283t117 283t283 117h100v100q0 41 29.5 70.5t70.5 29.5t70.5 -29.5t29.5 -70.5v-100h400zM800 600h-100v-400h100q83 0 141.5 58.5t58.5 141.5t-58.5 141.5t-141.5 58.5zM500 1200h-100q-83 0 -141.5 -58.5t-58.5 -141.5t58.5 -141.5t141.5 -58.5h100
v400z" />
    <glyph glyph-name="percent" unicode="%" 
d="M1030 1371q29 29 70 29t70.5 -29.5t29.5 -70.5q0 -24 -10 -45l4 -2l-1004 -1198q-8 -14 -19 -25q-30 -30 -71 -30t-70.5 29.5t-29.5 70.5q0 24 10 45l-4 2l1004 1198q8 14 20 26zM512 1312q88 -88 88 -212t-88 -212t-212 -88t-212 88t-88 212t88 212t212 88t212 -88z
M300 1200q-41 0 -70.5 -29.5t-29.5 -70.5t29.5 -70.5t70.5 -29.5t70.5 29.5t29.5 70.5t-29.5 70.5t-70.5 29.5zM1112 512q88 -88 88 -212t-88 -212t-212 -88t-212 88t-88 212t88 212t212 88t212 -88zM900 400q-41 0 -70.5 -29.5t-29.5 -70.5t29.5 -70.5t70.5 -29.5
t70.5 29.5t29.5 70.5t-29.5 70.5t-70.5 29.5z" />
    <glyph glyph-name="ampersand" unicode="&#x26;" 
d="M1000 200h100q41 0 70.5 -29.5t29.5 -70.5t-29.5 -70.5t-70.5 -29.5h-700q-166 0 -283 117t-117 283t117 283q9 9 18 17q-9 8 -18 17q-117 117 -117 283t117 283t283 117h200q41 0 70.5 -29.5t29.5 -70.5t-29.5 -70.5t-70.5 -29.5h-200q-83 0 -141.5 -58.5t-58.5 -141.5
t58.5 -141.5t141.5 -58.5h400v100q0 41 29.5 70.5t70.5 29.5t70.5 -29.5t29.5 -70.5v-100h100q41 0 70.5 -29.5t29.5 -70.5t-29.5 -70.5t-70.5 -29.5h-100v-400zM800 600h-400q-83 0 -141.5 -58.5t-58.5 -141.5t58.5 -141.5t141.5 -58.5h400v400z" />
    <glyph glyph-name="quotesingle" unicode="'" horiz-adv-x="400" 
d="M0 1300q0 41 29.5 70.5t70.5 29.5t70.5 -29.5t29.5 -70.5v-300q0 -41 -29.5 -70.5t-70.5 -29.5t-70.5 29.5t-29.5 70.5v300z" />
    <glyph glyph-name="parenleft" unicode="(" horiz-adv-x="1000" 
d="M700 1400q41 0 70.5 -29.5t29.5 -70.5t-29.5 -70.5t-70.5 -29.5q-207 0 -353.5 -146.5t-146.5 -353.5t146.5 -353.5t353.5 -146.5q41 0 70.5 -29.5t29.5 -70.5t-29.5 -70.5t-70.5 -29.5q-290 0 -495 205t-205 495t205 495t495 205z" />
    <glyph glyph-name="parenright" unicode=")" horiz-adv-x="1000" 
d="M100 0q-41 0 -70.5 29.5t-29.5 70.5t29.5 70.5t70.5 29.5q207 0 353.5 146.5t146.5 353.5t-146.5 353.5t-353.5 146.5q-41 0 -70.5 29.5t-29.5 70.5t29.5 70.5t70.5 29.5q290 0 495 -205t205 -495t-205 -495t-495 -205z" />
    <glyph glyph-name="asterisk" unicode="*" horiz-adv-x="1000" 
d="M500 776v-176q0 -41 -29.5 -70.5t-70.5 -29.5t-70.5 29.5t-29.5 70.5v176l-153 -88q-36 -20 -76 -9.5t-61 46.5q-20 36 -9.5 76t46.5 61l152 88l-152 88q-36 21 -46.5 61t9.5 76q21 36 61 46.5t76 -9.5l153 -88v176q0 41 29.5 70.5t70.5 29.5t70.5 -29.5t29.5 -70.5v-176
l153 88q36 20 76 9.5t61 -46.5q20 -36 9.5 -76t-46.5 -61l-152 -88l152 -88q36 -21 46.5 -61t-9.5 -76q-21 -36 -61 -46.5t-76 9.5z" />
    <glyph glyph-name="plus" unicode="+" horiz-adv-x="1100" 
d="M350 600h-250q-41 0 -70.5 29.5t-29.5 70.5t29.5 70.5t70.5 29.5h250v250q0 41 29.5 70.5t70.5 29.5t70.5 -29.5t29.5 -70.5v-250h250q41 0 70.5 -29.5t29.5 -70.5t-29.5 -70.5t-70.5 -29.5h-250v-250q0 -41 -29.5 -70.5t-70.5 -29.5t-70.5 29.5t-29.5 70.5v250z" />
    <glyph glyph-name="comma" unicode="," horiz-adv-x="400" 
d="M0 100q0 41 29.5 70.5t70.5 29.5t70.5 -29.5t29.5 -70.5v-300q0 -41 -29.5 -70.5t-70.5 -29.5t-70.5 29.5t-29.5 70.5v300z" />
    <glyph glyph-name="hyphen" unicode="-" horiz-adv-x="1100" 
d="M100 600q-41 0 -70.5 29.5t-29.5 70.5t29.5 70.5t70.5 29.5h700q41 0 70.5 -29.5t29.5 -70.5t-29.5 -70.5t-70.5 -29.5h-700z" />
    <glyph glyph-name="hyphen" unicode="&#xad;" horiz-adv-x="1100" 
d="M100 600q-41 0 -70.5 29.5t-29.5 70.5t29.5 70.5t70.5 29.5h700q41 0 70.5 -29.5t29.5 -70.5t-29.5 -70.5t-70.5 -29.5h-700z" />
    <glyph glyph-name="period" unicode="." horiz-adv-x="400" 
d="M100 0q-41 0 -70.5 29.5t-29.5 70.5t29.5 70.5t70.5 29.5t70.5 -29.5t29.5 -70.5t-29.5 -70.5t-70.5 -29.5z" />
    <glyph glyph-name="slash" unicode="/" 
d="M1030 1371q29 29 70 29t70.5 -29.5t29.5 -70.5q0 -24 -10 -45l4 -2l-1004 -1198q-8 -14 -19 -25q-30 -30 -71 -30t-70.5 29.5t-29.5 70.5q0 24 10 45l-4 2l1004 1198q8 14 20 26z" />
    <glyph glyph-name="zero" unicode="0" horiz-adv-x="1600" 
d="M1195 1195q205 -205 205 -495t-205 -495t-495 -205t-495 205t-205 495t205 495t495 205t495 -205zM700 1200q-207 0 -353.5 -146.5t-146.5 -353.5t146.5 -353.5t353.5 -146.5t353.5 146.5t146.5 353.5t-146.5 353.5t-353.5 146.5z" />
    <glyph glyph-name="one" unicode="1" horiz-adv-x="700" 
d="M500 100q0 -41 -29.5 -70.5t-70.5 -29.5t-70.5 29.5t-29.5 70.5v1100h-200q-41 0 -70.5 29.5t-29.5 70.5t29.5 70.5t70.5 29.5h300q41 0 70.5 -29.5t29.5 -70.5v-1200z" />
    <glyph glyph-name="two" unicode="2" 
d="M1100 200q41 0 70.5 -29.5t29.5 -70.5t-29.5 -70.5t-70.5 -29.5h-1000q-41 0 -70.5 29.5t-29.5 70.5v300q0 166 117 283t283 117h400q83 0 141.5 58.5t58.5 141.5t-58.5 141.5t-141.5 58.5h-700q-41 0 -70.5 29.5t-29.5 70.5t29.5 70.5t70.5 29.5h700q166 0 283 -117
t117 -283t-117 -283t-283 -117h-400q-83 0 -141.5 -58.5t-58.5 -141.5v-200h900z" />
    <glyph glyph-name="three" unicode="3" 
d="M100 1200q-41 0 -70.5 29.5t-29.5 70.5t29.5 70.5t70.5 29.5h700q166 0 283 -117t117 -283t-117 -283q-9 -9 -18 -17q9 -8 18 -17q117 -117 117 -283t-117 -283t-283 -117h-700q-41 0 -70.5 29.5t-29.5 70.5t29.5 70.5t70.5 29.5h700q83 0 141.5 58.5t58.5 141.5
t-58.5 141.5t-141.5 58.5h-700q-41 0 -70.5 29.5t-29.5 70.5t29.5 70.5t70.5 29.5h700q83 0 141.5 58.5t58.5 141.5t-58.5 141.5t-141.5 58.5h-700z" />
    <glyph glyph-name="four" unicode="4" 
d="M1000 1300q0 41 29.5 70.5t70.5 29.5t70.5 -29.5t29.5 -70.5v-1200q0 -41 -29.5 -70.5t-70.5 -29.5t-70.5 29.5t-29.5 70.5v1200zM0 1300q0 41 29.5 70.5t70.5 29.5t70.5 -29.5t29.5 -70.5v-500h500q41 0 70.5 -29.5t29.5 -70.5t-29.5 -70.5t-70.5 -29.5h-600
q-41 0 -70.5 29.5t-29.5 70.5v600z" />
    <glyph glyph-name="five" unicode="5" 
d="M1100 1400q41 0 70.5 -29.5t29.5 -70.5t-29.5 -70.5t-70.5 -29.5h-900v-200q0 -83 58.5 -141.5t141.5 -58.5h400q166 0 283 -117t117 -283t-117 -283t-283 -117h-700q-41 0 -70.5 29.5t-29.5 70.5t29.5 70.5t70.5 29.5h700q83 0 141.5 58.5t58.5 141.5t-58.5 141.5
t-141.5 58.5h-400q-166 0 -283 117t-117 283v300q0 41 29.5 70.5t70.5 29.5h1000z" />
    <glyph glyph-name="six" unicode="6" 
d="M1100 1400q41 0 70.5 -29.5t29.5 -70.5t-29.5 -70.5t-70.5 -29.5h-400q-207 0 -353.5 -146.5t-146.5 -353.5t146.5 -353.5t353.5 -146.5h100q83 0 141.5 58.5t58.5 141.5t-58.5 141.5t-141.5 58.5h-300q-41 0 -70.5 29.5t-29.5 70.5t29.5 70.5t70.5 29.5h300
q166 0 283 -117t117 -283t-117 -283t-283 -117h-100q-290 0 -495 205t-205 495t205 495t495 205h400z" />
    <glyph glyph-name="seven" unicode="7" 
d="M1100 1400q41 0 70.5 -29.5t29.5 -70.5q0 -24 -10 -45l4 -2l-1004 -1198q-8 -14 -19 -25q-30 -30 -71 -30t-70.5 29.5t-29.5 70.5q0 24 10 45l-4 2l882 1053h-788q-41 0 -70.5 29.5t-29.5 70.5t29.5 70.5t70.5 29.5h1000z" />
    <glyph glyph-name="eight" unicode="8" 
d="M800 1200h-400q-83 0 -141.5 -58.5t-58.5 -141.5t58.5 -141.5t141.5 -58.5h400q83 0 141.5 58.5t58.5 141.5t-58.5 141.5t-141.5 58.5zM800 600h-400q-83 0 -141.5 -58.5t-58.5 -141.5t58.5 -141.5t141.5 -58.5h400q83 0 141.5 58.5t58.5 141.5t-58.5 141.5t-141.5 58.5z
M400 1400h400q166 0 283 -117t117 -283t-117 -283q-9 -9 -18 -17q9 -8 18 -17q117 -117 117 -283t-117 -283t-283 -117h-400q-166 0 -283 117t-117 283t117 283q9 9 18 17q-9 8 -18 17q-117 117 -117 283t117 283t283 117z" />
    <glyph glyph-name="nine" unicode="9" 
d="M100 0q-41 0 -70.5 29.5t-29.5 70.5t29.5 70.5t70.5 29.5h400q207 0 353.5 146.5t146.5 353.5t-146.5 353.5t-353.5 146.5h-100q-83 0 -141.5 -58.5t-58.5 -141.5t58.5 -141.5t141.5 -58.5h300q41 0 70.5 -29.5t29.5 -70.5t-29.5 -70.5t-70.5 -29.5h-300q-166 0 -283 117
t-117 283t117 283t283 117h100q290 0 495 -205t205 -495t-205 -495t-495 -205h-400z" />
    <glyph glyph-name="colon" unicode=":" horiz-adv-x="400" 
d="M100 300q-41 0 -70.5 29.5t-29.5 70.5t29.5 70.5t70.5 29.5t70.5 -29.5t29.5 -70.5t-29.5 -70.5t-70.5 -29.5zM100 900q-41 0 -70.5 29.5t-29.5 70.5t29.5 70.5t70.5 29.5t70.5 -29.5t29.5 -70.5t-29.5 -70.5t-70.5 -29.5z" />
    <glyph glyph-name="semicolon" unicode=";" horiz-adv-x="400" 
d="M100 900q-41 0 -70.5 29.5t-29.5 70.5t29.5 70.5t70.5 29.5t70.5 -29.5t29.5 -70.5t-29.5 -70.5t-70.5 -29.5zM0 400q0 41 29.5 70.5t70.5 29.5t70.5 -29.5t29.5 -70.5v-300q0 -41 -29.5 -70.5t-70.5 -29.5t-70.5 29.5t-29.5 70.5v300z" />
    <glyph glyph-name="semicolon" unicode="&#x37e;" horiz-adv-x="400" 
d="M100 900q-41 0 -70.5 29.5t-29.5 70.5t29.5 70.5t70.5 29.5t70.5 -29.5t29.5 -70.5t-29.5 -70.5t-70.5 -29.5zM0 400q0 41 29.5 70.5t70.5 29.5t70.5 -29.5t29.5 -70.5v-300q0 -41 -29.5 -70.5t-70.5 -29.5t-70.5 29.5t-29.5 70.5v300z" />
    <glyph glyph-name="less" unicode="&#x3c;" 
d="M32 602q-10 5 -32 28q-30 29 -30 70t30 71q22 22 32 27l1017 588q22 14 51 14q42 0 71 -29.5t29 -70.5q0 -42 -29 -71q-14 -14 -31 -21l-880 -508l881 -508q16 -8 30 -21q29 -30 29 -71t-29 -70.5t-71 -29.5q-29 0 -51 14z" />
    <glyph glyph-name="equal" unicode="=" horiz-adv-x="1100" 
d="M100 400q-41 0 -70.5 29.5t-29.5 70.5t29.5 70.5t70.5 29.5h700q41 0 70.5 -29.5t29.5 -70.5t-29.5 -70.5t-70.5 -29.5h-700zM100 800q-41 0 -70.5 29.5t-29.5 70.5t29.5 70.5t70.5 29.5h700q41 0 70.5 -29.5t29.5 -70.5t-29.5 -70.5t-70.5 -29.5h-700z" />
    <glyph glyph-name="greater" unicode="&#x3e;" 
d="M1168 798q10 -5 33 -27q29 -30 29 -71t-29 -70q-23 -23 -33 -28l-1017 -588q-22 -14 -51 -14q-42 0 -71 29.5t-29 70.5q0 42 29 71q14 14 31 21l880 508l-881 508q-16 8 -30 22q-29 29 -29 70t29 70.5t71 29.5q29 0 51 -14z" />
    <glyph glyph-name="question" unicode="?" 
d="M200 400q0 -41 -29.5 -70.5t-70.5 -29.5t-70.5 29.5t-29.5 70.5q0 166 117 283t283 117h400q83 0 141.5 58.5t58.5 141.5t-58.5 141.5t-141.5 58.5h-700q-41 0 -70.5 29.5t-29.5 70.5t29.5 70.5t70.5 29.5h700q166 0 283 -117t117 -283t-117 -283t-283 -117h-400
q-83 0 -141.5 -58.5t-58.5 -141.5zM100 0q-41 0 -70.5 29.5t-29.5 70.5t29.5 70.5t70.5 29.5t70.5 -29.5t29.5 -70.5t-29.5 -70.5t-70.5 -29.5z" />
    <glyph glyph-name="at" unicode="@" horiz-adv-x="1600" 
d="M540 1175q-107 -35 -193 -121q-147 -147 -147 -354q0 -121 50 -221zM700 1400q290 0 495 -205t205 -495q0 -253 -156 -442l52 -126h-1q5 -15 5 -32q0 -41 -29.5 -70.5t-70.5 -29.5t-70 30q-20 19 -26 43l-18 42q-169 -115 -386 -115q-216 0 -385 114l-23 -55h-1
q-7 -16 -20 -29q-30 -30 -71 -30t-70.5 29.5t-29.5 70.5q0 25 11 46l46 111q-157 189 -157 443q0 290 205 495t495 205zM1007 305l-306 739l-307 -740q131 -104 306 -104t307 105zM863 1174l288 -693q49 99 49 219q0 207 -146 354q-86 85 -191 120z" />
    <glyph glyph-name="A" unicode="A" 
d="M601 1044l-350 -844h700zM100 0q-41 0 -70.5 29.5t-29.5 70.5q0 25 11 46l491 1179h1q6 25 27 46q29 29 70 29t71 -29q22 -23 27 -51l4 1l494 -1189h-1q5 -15 5 -32q0 -41 -29.5 -70.5t-70.5 -29.5h-1000z" />
    <glyph glyph-name="B" unicode="B" 
d="M0 100v1200q0 41 29.5 70.5t70.5 29.5h700q166 0 283 -117t117 -283t-117 -283q-9 -9 -18 -17q9 -8 18 -17q117 -117 117 -283t-117 -283t-283 -117h-700q-41 0 -70.5 29.5t-29.5 70.5zM200 1200v-400h600q83 0 141.5 58.5t58.5 141.5t-58.5 141.5t-141.5 58.5h-600z
M200 600v-400h600q83 0 141.5 58.5t58.5 141.5t-58.5 141.5t-141.5 58.5h-600z" />
    <glyph glyph-name="C" unicode="C" 
d="M1100 1400q41 0 70.5 -29.5t29.5 -70.5t-29.5 -70.5t-70.5 -29.5h-400q-207 0 -353.5 -146.5t-146.5 -353.5t146.5 -353.5t353.5 -146.5h400q41 0 70.5 -29.5t29.5 -70.5t-29.5 -70.5t-70.5 -29.5h-400q-290 0 -495 205t-205 495t205 495t495 205h400z" />
    <glyph glyph-name="D" unicode="D" 
d="M500 200q207 0 353.5 146.5t146.5 353.5t-146.5 353.5t-353.5 146.5h-300v-1000h300zM500 1400q290 0 495 -205t205 -495t-205 -495t-495 -205h-400q-41 0 -70.5 29.5t-29.5 70.5v1200q0 41 29.5 70.5t70.5 29.5h400z" />
    <glyph glyph-name="E" unicode="E" 
d="M1100 1400q41 0 70.5 -29.5t29.5 -70.5t-29.5 -70.5t-70.5 -29.5h-900v-400h700q41 0 70.5 -29.5t29.5 -70.5t-29.5 -70.5t-70.5 -29.5h-700v-400h900q41 0 70.5 -29.5t29.5 -70.5t-29.5 -70.5t-70.5 -29.5h-1000q-41 0 -70.5 29.5t-29.5 70.5v1200q0 41 29.5 70.5
t70.5 29.5h1000z" />
    <glyph glyph-name="F" unicode="F" 
d="M1100 1400q41 0 70.5 -29.5t29.5 -70.5t-29.5 -70.5t-70.5 -29.5h-900v-400h700q41 0 70.5 -29.5t29.5 -70.5t-29.5 -70.5t-70.5 -29.5h-700v-500q0 -41 -29.5 -70.5t-70.5 -29.5t-70.5 29.5t-29.5 70.5v1200q0 41 29.5 70.5t70.5 29.5h1000z" />
    <glyph glyph-name="G" unicode="G" 
d="M1100 1400q41 0 70.5 -29.5t29.5 -70.5t-29.5 -70.5t-70.5 -29.5h-400q-207 0 -353.5 -146.5t-146.5 -353.5t146.5 -353.5t353.5 -146.5h300v400h-300q-41 0 -70.5 29.5t-29.5 70.5t29.5 70.5t70.5 29.5h400q41 0 70.5 -29.5t29.5 -70.5v-600q0 -41 -29.5 -70.5
t-70.5 -29.5h-400q-290 0 -495 205t-205 495t205 495t495 205h400z" />
    <glyph glyph-name="H" unicode="H" 
d="M0 1300q0 41 29.5 70.5t70.5 29.5t70.5 -29.5t29.5 -70.5v-500h800v500q0 41 29.5 70.5t70.5 29.5t70.5 -29.5t29.5 -70.5v-1200q0 -41 -29.5 -70.5t-70.5 -29.5t-70.5 29.5t-29.5 70.5v500h-800v-500q0 -41 -29.5 -70.5t-70.5 -29.5t-70.5 29.5t-29.5 70.5v1200z" />
    <glyph glyph-name="I" unicode="I" horiz-adv-x="400" 
d="M0 1300q0 41 29.5 70.5t70.5 29.5t70.5 -29.5t29.5 -70.5v-1200q0 -41 -29.5 -70.5t-70.5 -29.5t-70.5 29.5t-29.5 70.5v1200z" />
    <glyph glyph-name="J" unicode="J" 
d="M0 600q0 41 29.5 70.5t70.5 29.5t70.5 -29.5t29.5 -70.5q0 -166 117 -283t283 -117t283 117t117 283v700q0 41 29.5 70.5t70.5 29.5t70.5 -29.5t29.5 -70.5v-700q0 -249 -175.5 -424.5t-424.5 -175.5t-424.5 175.5t-175.5 424.5z" />
    <glyph glyph-name="K" unicode="K" 
d="M0 1300q0 41 29.5 70.5t70.5 29.5t70.5 -29.5t29.5 -70.5v-404l849 490q22 14 51 14q42 0 71 -29.5t29 -70.5q0 -42 -29 -71q-14 -14 -31 -21l-880 -508l881 -508q16 -8 30 -21q29 -30 29 -71t-29 -70.5t-71 -29.5q-29 0 -51 14l-849 490v-404q0 -41 -29.5 -70.5
t-70.5 -29.5t-70.5 29.5t-29.5 70.5v1200z" />
    <glyph glyph-name="L" unicode="L" 
d="M0 1300q0 41 29.5 70.5t70.5 29.5t70.5 -29.5t29.5 -70.5v-1100h900q41 0 70.5 -29.5t29.5 -70.5t-29.5 -70.5t-70.5 -29.5h-1000q-41 0 -70.5 29.5t-29.5 70.5v1200z" />
    <glyph glyph-name="M" unicode="M" horiz-adv-x="2404" 
d="M191 59q-7 -16 -20 -29q-30 -30 -71 -30t-70.5 29.5t-29.5 70.5q0 25 11 46l491 1179h1q6 25 27 46q29 29 70 29t71 -29q22 -23 27 -51l4 1l399 -960l401 964h1q6 25 27 46q29 29 70 29t71 -29q22 -23 27 -51l4 1l494 -1189h-1q5 -15 5 -32q0 -41 -29.5 -70.5
t-70.5 -29.5t-70 30q-20 19 -26 43l-403 971l-409 -985h-1q-7 -16 -20 -29q-30 -30 -71 -30t-70 30q-20 19 -26 43l-403 971l-409 -985h-1z" />
    <glyph glyph-name="N" unicode="N" 
d="M200 100q0 -41 -29.5 -70.5t-70.5 -29.5t-70.5 29.5t-29.5 70.5v1200q0 41 29.5 70.5t70.5 29.5t71 -29q11 -12 19 -26l810 -967v922q0 41 29.5 70.5t70.5 29.5t70.5 -29.5t29.5 -70.5v-1200q0 -41 -29.5 -70.5t-70.5 -29.5t-70 30q-12 11 -20 25l-810 967v-922z" />
    <glyph glyph-name="O" unicode="O" horiz-adv-x="1600" 
d="M1195 1195q205 -205 205 -495t-205 -495t-495 -205t-495 205t-205 495t205 495t495 205t495 -205zM700 1200q-207 0 -353.5 -146.5t-146.5 -353.5t146.5 -353.5t353.5 -146.5t353.5 146.5t146.5 353.5t-146.5 353.5t-353.5 146.5z" />
    <glyph glyph-name="P" unicode="P" 
d="M200 100q0 -41 -29.5 -70.5t-70.5 -29.5t-70.5 29.5t-29.5 70.5v1200q0 41 29.5 70.5t70.5 29.5h700q166 0 283 -117t117 -283t-117 -283t-283 -117h-600v-500zM200 1200v-400h600q83 0 141.5 58.5t58.5 141.5t-58.5 141.5t-141.5 58.5h-600z" />
    <glyph glyph-name="Q" unicode="Q" horiz-adv-x="1600" 
d="M1118 423q82 122 82 277q0 207 -146.5 353.5t-353.5 146.5t-353.5 -146.5t-146.5 -353.5t146.5 -353.5t353.5 -146.5q155 0 277 82l-88 88q-29 29 -29 70.5t29 70.5t70.5 29t70.5 -29zM1120 139q-181 -139 -420 -139q-290 0 -495 205t-205 495t205 495t495 205t495 -205
t205 -495q0 -239 -139 -420l112 -112q29 -29 29 -70.5t-29 -70.5t-70.5 -29t-70.5 29z" />
    <glyph glyph-name="R" unicode="R" 
d="M0 1300q0 41 29.5 70.5t70.5 29.5h700q166 0 283 -117t117 -283t-117 -283t-283 -117h-367l708 -408q16 -8 30 -21q29 -30 29 -71t-29 -70.5t-71 -29.5q-29 0 -51 14l-849 490v-404q0 -41 -29.5 -70.5t-70.5 -29.5t-70.5 29.5t-29.5 70.5v1200zM200 1200v-400h600
q83 0 141.5 58.5t58.5 141.5t-58.5 141.5t-141.5 58.5h-600z" />
    <glyph glyph-name="S" unicode="S" 
d="M1100 1400q41 0 70.5 -29.5t29.5 -70.5t-29.5 -70.5t-70.5 -29.5h-700q-83 0 -141.5 -58.5t-58.5 -141.5t58.5 -141.5t141.5 -58.5h400q166 0 283 -117t117 -283t-117 -283t-283 -117h-700q-41 0 -70.5 29.5t-29.5 70.5t29.5 70.5t70.5 29.5h700q83 0 141.5 58.5
t58.5 141.5t-58.5 141.5t-141.5 58.5h-400q-166 0 -283 117t-117 283t117 283t283 117h700z" />
    <glyph glyph-name="T" unicode="T" 
d="M700 100q0 -41 -29.5 -70.5t-70.5 -29.5t-70.5 29.5t-29.5 70.5v1100h-400q-41 0 -70.5 29.5t-29.5 70.5t29.5 70.5t70.5 29.5h1000q41 0 70.5 -29.5t29.5 -70.5t-29.5 -70.5t-70.5 -29.5h-400v-1100z" />
    <glyph glyph-name="U" unicode="U" 
d="M0 1300q0 41 29.5 70.5t70.5 29.5t70.5 -29.5t29.5 -70.5v-700q0 -166 117 -283t283 -117t283 117t117 283v700q0 41 29.5 70.5t70.5 29.5t70.5 -29.5t29.5 -70.5v-700q0 -249 -175.5 -424.5t-424.5 -175.5t-424.5 175.5t-175.5 424.5v700z" />
    <glyph glyph-name="V" unicode="V" 
d="M11 1254q-11 21 -11 46q0 41 29.5 70.5t70.5 29.5t71 -29q13 -14 20 -30h1l409 -985l403 971q6 24 26 44q29 29 70 29t70.5 -29.5t29.5 -70.5q0 -17 -5 -32h1l-494 -1189l-4 1q-5 -28 -27 -50q-30 -30 -71 -30t-70 30q-21 20 -27 45h-1z" />
    <glyph glyph-name="W" unicode="W" horiz-adv-x="2404" 
d="M11 1254q-11 21 -11 46q0 41 29.5 70.5t70.5 29.5t71 -29q13 -14 20 -30h1l409 -985l403 971q6 24 26 44q29 29 70 29t71 -29q13 -14 20 -30h1l409 -985l403 971q6 24 26 44q29 29 70 29t70.5 -29.5t29.5 -70.5q0 -17 -5 -32h1l-494 -1189l-4 1q-5 -28 -27 -50
q-30 -30 -71 -30t-70 30q-21 20 -27 45h-1l-401 964l-399 -960l-4 1q-5 -28 -27 -50q-30 -30 -71 -30t-70 30q-21 20 -27 45h-1z" />
    <glyph glyph-name="X" unicode="X" 
d="M0 1300q0 41 29.5 70.5t70.5 29.5t70.5 -29.5t29.5 -70.5v-100q0 -166 117 -283t283 -117t283 117t117 283v100q0 41 29.5 70.5t70.5 29.5t70.5 -29.5t29.5 -70.5v-100q0 -249 -175 -424q-44 -44 -91 -76q47 -32 91 -75q175 -176 175 -425v-100q0 -41 -29.5 -70.5
t-70.5 -29.5t-70.5 29.5t-29.5 70.5v100q0 166 -117 283t-283 117t-283 -117t-117 -283v-100q0 -41 -29.5 -70.5t-70.5 -29.5t-70.5 29.5t-29.5 70.5v100q0 249 176 425q43 43 90 75q-47 32 -90 76q-176 175 -176 424v100z" />
    <glyph glyph-name="Y" unicode="Y" 
d="M0 1300q0 41 29.5 70.5t70.5 29.5t70.5 -29.5t29.5 -70.5v-200q0 -166 117 -283t283 -117t283 117t117 283v200q0 41 29.5 70.5t70.5 29.5t70.5 -29.5t29.5 -70.5v-200q0 -249 -175 -424q-140 -140 -325 -168v-408q0 -41 -29.5 -70.5t-70.5 -29.5t-70.5 29.5t-29.5 70.5
v408q-185 28 -324 168q-176 175 -176 424v200z" />
    <glyph glyph-name="Z" unicode="Z" 
d="M1100 1400q41 0 70.5 -29.5t29.5 -70.5q0 -24 -10 -45l4 -2l-882 -1053h788q41 0 70.5 -29.5t29.5 -70.5t-29.5 -70.5t-70.5 -29.5h-1000q-41 0 -70.5 29.5t-29.5 70.5q0 24 10 45l-4 2l882 1053h-788q-41 0 -70.5 29.5t-29.5 70.5t29.5 70.5t70.5 29.5h1000z" />
    <glyph glyph-name="bracketleft" unicode="[" horiz-adv-x="900" 
d="M600 1400q41 0 70.5 -29.5t29.5 -70.5t-29.5 -70.5t-70.5 -29.5h-400v-1000h400q41 0 70.5 -29.5t29.5 -70.5t-29.5 -70.5t-70.5 -29.5h-500q-41 0 -70.5 29.5t-29.5 70.5v1200q0 41 29.5 70.5t70.5 29.5h500z" />
    <glyph glyph-name="backslash" unicode="\" 
d="M1010 55l-1004 1198l4 2q-10 21 -10 45q0 41 29.5 70.5t70.5 29.5t71 -29q11 -12 19 -26l1004 -1198l-4 -2q10 -21 10 -45q0 -41 -29.5 -70.5t-70.5 -29.5t-70 30q-12 11 -20 25z" />
    <glyph glyph-name="bracketright" unicode="]" horiz-adv-x="900" 
d="M100 0q-41 0 -70.5 29.5t-29.5 70.5t29.5 70.5t70.5 29.5h400v1000h-400q-41 0 -70.5 29.5t-29.5 70.5t29.5 70.5t70.5 29.5h500q41 0 70.5 -29.5t29.5 -70.5v-1200q0 -41 -29.5 -70.5t-70.5 -29.5h-500z" />
    <glyph glyph-name="asciicircum" unicode="^" horiz-adv-x="400" 
d="M0 1300q0 41 29.5 70.5t70.5 29.5t70.5 -29.5t29.5 -70.5v-300q0 -41 -29.5 -70.5t-70.5 -29.5t-70.5 29.5t-29.5 70.5v300z" />
    <glyph glyph-name="underscore" unicode="_" 
d="M100 0q-41 0 -70.5 29.5t-29.5 70.5t29.5 70.5t70.5 29.5h1000q41 0 70.5 -29.5t29.5 -70.5t-29.5 -70.5t-70.5 -29.5h-1000z" />
    <glyph glyph-name="grave" unicode="`" horiz-adv-x="400" 
d="M0 1300q0 41 29.5 70.5t70.5 29.5t70.5 -29.5t29.5 -70.5v-300q0 -41 -29.5 -70.5t-70.5 -29.5t-70.5 29.5t-29.5 70.5v300z" />
    <glyph glyph-name="a" unicode="a" 
d="M191 59q-7 -16 -20 -29q-30 -30 -71 -30t-70.5 29.5t-29.5 70.5q0 25 11 46l491 1179h1q6 25 27 46q29 29 70 29t71 -29q22 -23 27 -51l4 1l494 -1189h-1q5 -15 5 -32q0 -41 -29.5 -70.5t-70.5 -29.5t-70 30q-20 19 -26 43l-403 971l-409 -985h-1z" />
    <glyph glyph-name="b" unicode="b" 
d="M100 1200q-41 0 -70.5 29.5t-29.5 70.5t29.5 70.5t70.5 29.5h700q166 0 283 -117t117 -283t-117 -283q-9 -9 -18 -17q9 -8 18 -17q117 -117 117 -283t-117 -283t-283 -117h-700q-41 0 -70.5 29.5t-29.5 70.5t29.5 70.5t70.5 29.5h700q83 0 141.5 58.5t58.5 141.5
t-58.5 141.5t-141.5 58.5h-700q-41 0 -70.5 29.5t-29.5 70.5t29.5 70.5t70.5 29.5h700q83 0 141.5 58.5t58.5 141.5t-58.5 141.5t-141.5 58.5h-700z" />
    <glyph glyph-name="c" unicode="c" 
d="M1100 1400q41 0 70.5 -29.5t29.5 -70.5t-29.5 -70.5t-70.5 -29.5h-400q-207 0 -353.5 -146.5t-146.5 -353.5t146.5 -353.5t353.5 -146.5h400q41 0 70.5 -29.5t29.5 -70.5t-29.5 -70.5t-70.5 -29.5h-400q-290 0 -495 205t-205 495t205 495t495 205h400z" />
    <glyph glyph-name="d" unicode="d" 
d="M100 1200q-41 0 -70.5 29.5t-29.5 70.5t29.5 70.5t70.5 29.5h400q290 0 495 -205t205 -495t-205 -495t-495 -205h-400q-41 0 -70.5 29.5t-29.5 70.5v800q0 41 29.5 70.5t70.5 29.5t70.5 -29.5t29.5 -70.5v-700h300q207 0 353.5 146.5t146.5 353.5t-146.5 353.5
t-353.5 146.5h-400z" />
    <glyph glyph-name="e" unicode="e" 
d="M100 1200q-41 0 -70.5 29.5t-29.5 70.5t29.5 70.5t70.5 29.5h1000q41 0 70.5 -29.5t29.5 -70.5t-29.5 -70.5t-70.5 -29.5h-1000zM1100 800q41 0 70.5 -29.5t29.5 -70.5t-29.5 -70.5t-70.5 -29.5h-1000q-41 0 -70.5 29.5t-29.5 70.5t29.5 70.5t70.5 29.5h1000zM100 0
q-41 0 -70.5 29.5t-29.5 70.5t29.5 70.5t70.5 29.5h1000q41 0 70.5 -29.5t29.5 -70.5t-29.5 -70.5t-70.5 -29.5h-1000z" />
    <glyph glyph-name="f" unicode="f" 
d="M100 1200q-41 0 -70.5 29.5t-29.5 70.5t29.5 70.5t70.5 29.5h1000q41 0 70.5 -29.5t29.5 -70.5t-29.5 -70.5t-70.5 -29.5h-1000zM200 100q0 -41 -29.5 -70.5t-70.5 -29.5t-70.5 29.5t-29.5 70.5v600q0 41 29.5 70.5t70.5 29.5h1000q41 0 70.5 -29.5t29.5 -70.5
t-29.5 -70.5t-70.5 -29.5h-900v-500z" />
    <glyph glyph-name="g" unicode="g" 
d="M1100 1400q41 0 70.5 -29.5t29.5 -70.5t-29.5 -70.5t-70.5 -29.5h-400q-207 0 -353.5 -146.5t-146.5 -353.5t146.5 -353.5t353.5 -146.5h300v400h-300q-41 0 -70.5 29.5t-29.5 70.5t29.5 70.5t70.5 29.5h400q41 0 70.5 -29.5t29.5 -70.5v-600q0 -41 -29.5 -70.5
t-70.5 -29.5h-400q-290 0 -495 205t-205 495t205 495t495 205h400z" />
    <glyph glyph-name="h" unicode="h" 
d="M0 1300q0 41 29.5 70.5t70.5 29.5t70.5 -29.5t29.5 -70.5v-1200q0 -41 -29.5 -70.5t-70.5 -29.5t-70.5 29.5t-29.5 70.5v1200zM1000 1300q0 41 29.5 70.5t70.5 29.5t70.5 -29.5t29.5 -70.5v-1200q0 -41 -29.5 -70.5t-70.5 -29.5t-70.5 29.5t-29.5 70.5v500h-500
q-41 0 -70.5 29.5t-29.5 70.5t29.5 70.5t70.5 29.5h500v500z" />
    <glyph glyph-name="i" unicode="i" horiz-adv-x="400" 
d="M0 900q0 41 29.5 70.5t70.5 29.5t70.5 -29.5t29.5 -70.5v-800q0 -41 -29.5 -70.5t-70.5 -29.5t-70.5 29.5t-29.5 70.5v800zM200 1300q0 -41 -29.5 -70.5t-70.5 -29.5t-70.5 29.5t-29.5 70.5t29.5 70.5t70.5 29.5t70.5 -29.5t29.5 -70.5z" />
    <glyph glyph-name="j" unicode="j" 
d="M0 600q0 41 29.5 70.5t70.5 29.5t70.5 -29.5t29.5 -70.5q0 -166 117 -283t283 -117t283 117t117 283v700q0 41 29.5 70.5t70.5 29.5t70.5 -29.5t29.5 -70.5v-700q0 -249 -175.5 -424.5t-424.5 -175.5t-424.5 175.5t-175.5 424.5z" />
    <glyph glyph-name="k" unicode="k" 
d="M0 1300q0 41 29.5 70.5t70.5 29.5t70.5 -29.5t29.5 -70.5v-404l849 490q22 14 51 14q42 0 71 -29.5t29 -70.5q0 -42 -29 -71q-14 -14 -31 -21l-880 -508l881 -508q16 -8 30 -21q29 -30 29 -71t-29 -70.5t-71 -29.5q-29 0 -51 14l-849 490v-404q0 -41 -29.5 -70.5
t-70.5 -29.5t-70.5 29.5t-29.5 70.5v1200z" />
    <glyph glyph-name="l" unicode="l" 
d="M0 1300q0 41 29.5 70.5t70.5 29.5t70.5 -29.5t29.5 -70.5v-1100h900q41 0 70.5 -29.5t29.5 -70.5t-29.5 -70.5t-70.5 -29.5h-1000q-41 0 -70.5 29.5t-29.5 70.5v1200z" />
    <glyph glyph-name="m" unicode="m" horiz-adv-x="2404" 
d="M191 59q-7 -16 -20 -29q-30 -30 -71 -30t-70.5 29.5t-29.5 70.5q0 25 11 46l491 1179h1q6 25 27 46q29 29 70 29t71 -29q22 -23 27 -51l4 1l399 -960l401 964h1q6 25 27 46q29 29 70 29t71 -29q22 -23 27 -51l4 1l494 -1189h-1q5 -15 5 -32q0 -41 -29.5 -70.5
t-70.5 -29.5t-70 30q-20 19 -26 43l-403 971l-409 -985h-1q-7 -16 -20 -29q-30 -30 -71 -30t-70 30q-20 19 -26 43l-403 971l-409 -985h-1z" />
    <glyph glyph-name="n" unicode="n" 
d="M200 100q0 -41 -29.5 -70.5t-70.5 -29.5t-70.5 29.5t-29.5 70.5v1200q0 41 29.5 70.5t70.5 29.5t71 -29q11 -12 19 -26l810 -967v922q0 41 29.5 70.5t70.5 29.5t70.5 -29.5t29.5 -70.5v-1200q0 -41 -29.5 -70.5t-70.5 -29.5t-70 30q-12 11 -20 25l-810 967v-922z" />
    <glyph glyph-name="o" unicode="o" horiz-adv-x="1600" 
d="M1195 1195q205 -205 205 -495t-205 -495t-495 -205t-495 205t-205 495t205 495t495 205t495 -205zM700 1200q-207 0 -353.5 -146.5t-146.5 -353.5t146.5 -353.5t353.5 -146.5t353.5 146.5t146.5 353.5t-146.5 353.5t-353.5 146.5z" />
    <glyph glyph-name="p" unicode="p" 
d="M100 1200q-41 0 -70.5 29.5t-29.5 70.5t29.5 70.5t70.5 29.5h700q166 0 283 -117t117 -283t-117 -283t-283 -117h-600v-500q0 -41 -29.5 -70.5t-70.5 -29.5t-70.5 29.5t-29.5 70.5v600q0 41 29.5 70.5t70.5 29.5h700q83 0 141.5 58.5t58.5 141.5t-58.5 141.5t-141.5 58.5
h-700z" />
    <glyph glyph-name="q" unicode="q" horiz-adv-x="1600" 
d="M1118 423q82 122 82 277q0 207 -146.5 353.5t-353.5 146.5t-353.5 -146.5t-146.5 -353.5t146.5 -353.5t353.5 -146.5q155 0 277 82l-88 88q-29 29 -29 70.5t29 70.5t70.5 29t70.5 -29zM1120 139q-181 -139 -420 -139q-290 0 -495 205t-205 495t205 495t495 205t495 -205
t205 -495q0 -239 -139 -420l112 -112q29 -29 29 -70.5t-29 -70.5t-70.5 -29t-70.5 29z" />
    <glyph glyph-name="r" unicode="r" 
d="M100 1200q-41 0 -70.5 29.5t-29.5 70.5t29.5 70.5t70.5 29.5h700q166 0 283 -117t117 -283t-117 -283t-283 -117h-367l708 -408q16 -8 30 -21q29 -30 29 -71t-29 -70.5t-71 -29.5q-29 0 -51 14l-849 490v-404q0 -41 -29.5 -70.5t-70.5 -29.5t-70.5 29.5t-29.5 70.5v600
q0 41 29.5 70.5t70.5 29.5h700q83 0 141.5 58.5t58.5 141.5t-58.5 141.5t-141.5 58.5h-700z" />
    <glyph glyph-name="s" unicode="s" 
d="M1100 1400q41 0 70.5 -29.5t29.5 -70.5t-29.5 -70.5t-70.5 -29.5h-700q-83 0 -141.5 -58.5t-58.5 -141.5t58.5 -141.5t141.5 -58.5h400q166 0 283 -117t117 -283t-117 -283t-283 -117h-700q-41 0 -70.5 29.5t-29.5 70.5t29.5 70.5t70.5 29.5h700q83 0 141.5 58.5
t58.5 141.5t-58.5 141.5t-141.5 58.5h-400q-166 0 -283 117t-117 283t117 283t283 117h700z" />
    <glyph glyph-name="t" unicode="t" 
d="M100 1200q-41 0 -70.5 29.5t-29.5 70.5t29.5 70.5t70.5 29.5h1000q41 0 70.5 -29.5t29.5 -70.5t-29.5 -70.5t-70.5 -29.5h-1000zM700 100q0 -41 -29.5 -70.5t-70.5 -29.5t-70.5 29.5t-29.5 70.5v800q0 41 29.5 70.5t70.5 29.5t70.5 -29.5t29.5 -70.5v-800z" />
    <glyph glyph-name="u" unicode="u" 
d="M0 1300q0 41 29.5 70.5t70.5 29.5t70.5 -29.5t29.5 -70.5v-700q0 -166 117 -283t283 -117t283 117t117 283v700q0 41 29.5 70.5t70.5 29.5t70.5 -29.5t29.5 -70.5v-700q0 -249 -175.5 -424.5t-424.5 -175.5t-424.5 175.5t-175.5 424.5v700z" />
    <glyph glyph-name="v" unicode="v" 
d="M11 1254q-11 21 -11 46q0 41 29.5 70.5t70.5 29.5t71 -29q13 -14 20 -30h1l409 -985l403 971q6 24 26 44q29 29 70 29t70.5 -29.5t29.5 -70.5q0 -17 -5 -32h1l-494 -1189l-4 1q-5 -28 -27 -50q-30 -30 -71 -30t-70 30q-21 20 -27 45h-1z" />
    <glyph glyph-name="w" unicode="w" horiz-adv-x="2404" 
d="M11 1254q-11 21 -11 46q0 41 29.5 70.5t70.5 29.5t71 -29q13 -14 20 -30h1l409 -985l403 971q6 24 26 44q29 29 70 29t71 -29q13 -14 20 -30h1l409 -985l403 971q6 24 26 44q29 29 70 29t70.5 -29.5t29.5 -70.5q0 -17 -5 -32h1l-494 -1189l-4 1q-5 -28 -27 -50
q-30 -30 -71 -30t-70 30q-21 20 -27 45h-1l-401 964l-399 -960l-4 1q-5 -28 -27 -50q-30 -30 -71 -30t-70 30q-21 20 -27 45h-1z" />
    <glyph glyph-name="x" unicode="x" 
d="M0 1300q0 41 29.5 70.5t70.5 29.5t70.5 -29.5t29.5 -70.5v-100q0 -166 117 -283t283 -117t283 117t117 283v100q0 41 29.5 70.5t70.5 29.5t70.5 -29.5t29.5 -70.5v-100q0 -249 -175 -424q-44 -44 -91 -76q47 -32 91 -75q175 -176 175 -425v-100q0 -41 -29.5 -70.5
t-70.5 -29.5t-70.5 29.5t-29.5 70.5v100q0 166 -117 283t-283 117t-283 -117t-117 -283v-100q0 -41 -29.5 -70.5t-70.5 -29.5t-70.5 29.5t-29.5 70.5v100q0 249 176 425q43 43 90 75q-47 32 -90 76q-176 175 -176 424v100z" />
    <glyph glyph-name="y" unicode="y" 
d="M0 1300q0 41 29.5 70.5t70.5 29.5t70.5 -29.5t29.5 -70.5v-200q0 -166 117 -283t283 -117t283 117t117 283v200q0 41 29.5 70.5t70.5 29.5t70.5 -29.5t29.5 -70.5v-200q0 -249 -175 -424q-140 -140 -325 -168v-408q0 -41 -29.5 -70.5t-70.5 -29.5t-70.5 29.5t-29.5 70.5
v408q-185 28 -324 168q-176 175 -176 424v200z" />
    <glyph glyph-name="z" unicode="z" 
d="M1100 1400q41 0 70.5 -29.5t29.5 -70.5q0 -24 -10 -45l4 -2l-882 -1053h788q41 0 70.5 -29.5t29.5 -70.5t-29.5 -70.5t-70.5 -29.5h-1000q-41 0 -70.5 29.5t-29.5 70.5q0 24 10 45l-4 2l882 1053h-788q-41 0 -70.5 29.5t-29.5 70.5t29.5 70.5t70.5 29.5h1000z" />
    <glyph glyph-name="braceleft" unicode="{" horiz-adv-x="1200" 
d="M206 800q30 226 199 395q205 205 495 205q41 0 70.5 -29.5t29.5 -70.5t-29.5 -70.5t-70.5 -29.5q-207 0 -353.5 -146.5t-146.5 -353.5t146.5 -353.5t353.5 -146.5q41 0 70.5 -29.5t29.5 -70.5t-29.5 -70.5t-70.5 -29.5q-290 0 -495 205q-169 169 -199 395h-106
q-41 0 -70.5 29.5t-29.5 70.5t29.5 70.5t70.5 29.5h106z" />
    <glyph glyph-name="bar" unicode="|" horiz-adv-x="400" 
d="M0 1300q0 41 29.5 70.5t70.5 29.5t70.5 -29.5t29.5 -70.5v-1200q0 -41 -29.5 -70.5t-70.5 -29.5t-70.5 29.5t-29.5 70.5v1200z" />
    <glyph glyph-name="braceright" unicode="}" horiz-adv-x="1200" 
d="M794 600q-30 -226 -199 -395q-205 -205 -495 -205q-41 0 -70.5 29.5t-29.5 70.5t29.5 70.5t70.5 29.5q207 0 353.5 146.5t146.5 353.5t-146.5 353.5t-353.5 146.5q-41 0 -70.5 29.5t-29.5 70.5t29.5 70.5t70.5 29.5q290 0 495 -205q169 -169 199 -395h106
q41 0 70.5 -29.5t29.5 -70.5t-29.5 -70.5t-70.5 -29.5h-106z" />
    <glyph glyph-name="asciitilde" unicode="~" horiz-adv-x="1100" 
d="M100 600q-41 0 -70.5 29.5t-29.5 70.5t29.5 70.5t70.5 29.5h700q41 0 70.5 -29.5t29.5 -70.5t-29.5 -70.5t-70.5 -29.5h-700z" />
    </font>
</defs>
</svg>
